<svg xmlns="http://www.w3.org/2000/svg" width="63.015" height="47.02" viewBox="0 0 63.015 47.02">
  <path id="Icon_awesome-home" data-name="Icon awesome-home" d="M30.671,14.452,10.5,30.391v17.2a1.716,1.716,0,0,0,1.75,1.679l12.259-.03a1.716,1.716,0,0,0,1.742-1.679V37.517A1.716,1.716,0,0,1,28,35.838h7a1.716,1.716,0,0,1,1.75,1.679V47.556a1.645,1.645,0,0,0,.511,1.191,1.788,1.788,0,0,0,1.24.494l12.254.033a1.716,1.716,0,0,0,1.75-1.679V30.379L32.345,14.452A1.378,1.378,0,0,0,30.671,14.452ZM62.53,25.285l-9.145-7.233V3.513a1.287,1.287,0,0,0-1.313-1.26H45.946a1.287,1.287,0,0,0-1.313,1.26v7.622L34.839,3.4a5.423,5.423,0,0,0-6.673,0L.475,25.285A1.225,1.225,0,0,0,.3,27.059l2.79,3.254a1.33,1.33,0,0,0,.888.454,1.351,1.351,0,0,0,.962-.283L30.671,10.148a1.378,1.378,0,0,1,1.674,0L58.077,30.484a1.351,1.351,0,0,0,1.849-.168l2.79-3.254a1.225,1.225,0,0,0,.292-.926,1.246,1.246,0,0,0-.478-.851Z" transform="translate(0.001 -2.254)" opacity="0.71"/>
</svg>
