<svg xmlns="http://www.w3.org/2000/svg" width="71.364" height="71.364" viewBox="0 0 71.364 71.364">
  <path id="Icon_metro-earth2" data-name="Icon metro-earth2" d="M38.253,73.292A35.682,35.682,0,1,1,73.935,37.61,35.684,35.684,0,0,1,38.253,73.292ZM67.173,34.62a.223.223,0,0,0,.112-.156,1.087,1.087,0,0,0,.343.627c0,.022-.007.018,0,.049.018,0,.031-.013.047-.013a1.079,1.079,0,0,0,.68.254,1.1,1.1,0,0,0,.932-.537.536.536,0,0,1,.047.054c0-.036-.007-.071-.011-.107a1.082,1.082,0,0,0,.147-.524A1.117,1.117,0,0,0,68.36,33.15a1.1,1.1,0,0,0-.919.517c-.009-.007,0-.033-.025-.025a1.009,1.009,0,0,0-.172-.533v1.155A1.166,1.166,0,0,1,67.173,34.62Zm-51.239-.335c0-.337-.767-.91-.966-.91,0-.06-.312-.747-.43-.747,0-.232-.814-1.273-.943-.818-.085.294.622.691.622,1.033.132,0,.685,1.048.794,1.231,1.209,2.043-.9.647-.9-.219a2.844,2.844,0,0,1-.7-1.443,4.611,4.611,0,0,1-.589-1.12c0-.651-.359-.963-1.073-.963-.033-.065-.633-.908-.645-.908a2.363,2.363,0,0,0-.749-1.229,8.645,8.645,0,0,1-.158-1.815,6.151,6.151,0,0,0-.236-1.909A31.121,31.121,0,0,0,27.539,66.907c.013-1.106.1-2.431.348-2.431,0-.165.14-.856.268-.856a13.513,13.513,0,0,0,0-1.443c-.158-.319.21-.727.321-1.229.618-.31.181-3.419.647-3.419,0-1.554.348-2.46.1-3.9.118,0-.7-.872-.7-.856-.787,0-1.338-1.262-1.338-1.815a3.365,3.365,0,0,1-.27-.908c.181,0-1.126-1.909-1.126-1.871-.691-.384.038-.919.107-1.548-.6-.2.007-1.818.268-1.818a.5.5,0,0,1,.323-.426c.134.533.756-.265.268-.265,0-.352-.04-1.106,0-1.282,0-.544-.482-1.61-.856-.482-.4-.2-1.414-.163-1.5-.8.062-.314-.578-.957-.8-1.068.21-.549-1.086-1.282-1.554-1.282,0-.118-.248-.065-.321-.214-.477,0-.587-.642-1.126-.642-.622,0-1.249-.426-1.822-.426-.192-.381-1.082-.232-1.287-.642-.466,0-.649-.883-.662-1.209-.02-.4-.339-1.789-.9-1.789Zm45.174-17.9a.112.112,0,0,1-.018.049c.033,0,.074.038.112.054C61.167,16.457,61.138,16.424,61.107,16.388Zm.671.738a.72.72,0,0,1,.118.379c.078,0,.116-.04.178-.056C61.979,17.34,61.874,17.238,61.778,17.126Zm1.938,10.16c.036-.963-.8-.8-1.068-1.338-.277,0-.377-.214-.752-.214a.459.459,0,0,0-.575.174c-.573.219-.227-.279-.658-.279.02-.551-.2-.7-.805-.642-.348.785-.883,1.256-.8,2.139.256.058.212.116.161.372.341.018,2.411-.107,2.411-.321.071,0,.43.738.43.107.288,0,.439.676,1.126.479C63.183,27.9,64.33,27.287,63.716,27.287Zm.109,11.38c.04-.2-.1-.283-.214-.482.306,0-.966-2.357-.966-2.725-.194-.1-.442-.769-.486-1.015a2.562,2.562,0,0,1-.642-1.068A3.874,3.874,0,0,1,60.5,32.042c.384.042.963.12.963-.375-.259,0-.3-.319-.051-.319-.08-.328.174-.564.23-.821a6.048,6.048,0,0,0,.2-1.157,1.767,1.767,0,0,0-.749.161c0,.216-.653-.054-.749-.054-.14-.281-1.16.366-1.445-.214-.462-.417-.337-.738-.486-1.327-.076-.3-.484-.317-.731-.366-.7-.136-.194.832-.232,1.053.428,0-.27.531-.27.8-.723-.156-.482-.961-.908-1.175-.127-.214-.027-.375-.323-.375,0-.285.152-.8-.161-.908,0-.138-.607-.194-.7-.375-.384,0-1.276-1.45-1.55-.961-.172.312.145.388.21.642.555-.109.5.914,1.18.8a1.858,1.858,0,0,0,.051.428c.5-.118.444.372.7.372-.183.243-.763-.388-.6.143.091.308.04.571-.359.872,0-.332-.027-1.229-.375-1.229-.236-.473-.939-.359-1.235-.8-.241,0-.335-.749-.749-.8a.837.837,0,0,1-.484.214c-.225.453-1.5.047-1.5.107-.02,0-.714,1.7-.754,1.922-.078.479-.464.488-.58.943-.058.227-1.456.12-1.456.288a1.426,1.426,0,0,1-1.126-1.282,10.061,10.061,0,0,1,.216-1.925c.123.033.147.076.216.214.37-.138,1.233.091,1.233-.321q.539.013.321.428c.335.062.912.147.912-.321-.2,0-.216-.018-.216-.214.642-.667-.482-1.269-.482-1.6-.227-.076-.691-.569-.361-.384.279.154,1.3.473.9-.205a.074.074,0,0,0,.051-.051c.114.08.593.573.593.107.132,0,.64-.321.214-.321.04-.241.031-.442.051-.589.68.366.3-.25.645-.479,0,.444.366-.214.589-.214.265-.395.872-.089,1.019-.535-.328-.107-.268-.928-.268-1.227.395.065.834-.533.894-.123.022.158.042.6.123.656.587.308.43-.176.43-.479-.2,0-.457-.687-.484-1.017-.161.022-.419.089-.484.212-.584,0-.981-.212-1.445-.212a8.286,8.286,0,0,1-.535-.7c-.326-.56.326-.4.428-.424,0-.531,2.21-.437,2.306-1.285-.727,0,.749-1.231.749-1.227.493-.421.754-.785,1.367-.832.259-.018,3.136-.812,3.136-.453.116,0,.5.009.9.022a31.084,31.084,0,0,0-41.9-.484.79.79,0,0,1,.085.294c.292-.02.711-.207.805.163a1.832,1.832,0,0,1-.428-.056c.1.827-.361.321-.749.321a1.079,1.079,0,0,0-.355-.138c-.118.112-.243.216-.361.328.013.036-.007.038.016.078.125,0,.06.194.417.312a7.948,7.948,0,0,0,1.3.288,4.139,4.139,0,0,0,.856-.065c0-.045.736-.372.216-.372.071-.294-.06-.368-.377-.372.027-.312.769-.107,1.073-.107.232-.39.007-.343.212-.7.245-.435.537-.058.7-.475a.748.748,0,0,1,.537.529c.194.161,1.18,1.615,1.18.587.352.118.529.778.535,1.124.64-.094.7-.573.7-1.07.147,0-.054-.239-.054-.321.239-.087.537.227.537-.1.1,0,.107.1.107.214.332.065.546-.038.749.033.14.049.069.778,0,1.035-.08.326-.7.33-.7.482-.7.526.832.8,1.073,1.122a2.964,2.964,0,0,1-.7-.1c-.348,0-1.191.368-1.5.1.433,0,.578-.52.645-1.015a.767.767,0,0,0-.981.493c-.187.656-.622-.027-.841.415-.085.027-.859.386-.859.265-.87.123-.642.861-.642,1.657.346.207,1.048.8,1.017,1.122.781.138,1.066.221,1.768.321a.851.851,0,0,0,.43.265c0,.459.417.377.8.377,0-.587.682.488.749.694-.094,0,.161.6.214.8-.107-.038-.141,0-.107.107.339.125.876.089.966-.268-.326,0-.216-.372-.216-.589a.4.4,0,0,1,.054-.747c0,.3,1.1-.19.482-.426a1.2,1.2,0,0,0,.007-1.162c-.158-.187-.357,0-.435-.281.421-.1.112-.908.107-1.282.134-.051.482.085.482,0,.413,0,1.1.522,1.34-.109.689.314.141.613.859.375a3.1,3.1,0,0,0,.912.961c0,.038-.02.268.158.268,0,.172-.107-.1-.107.212.1.011.645.109.645-.1.346,0,.589-.424.589-.747.216-.14.6,1.175.856,1.175.192.3.805.734.805,1.015.129.132.265.1.265.482.163,0,.484-.64.484-.054a1.014,1.014,0,0,1,.645.587c-.386,0-.02.375-.219.375,0,.37-.827.076-1.015.054-.256,1.149-1.8.323-2.741.62a3.193,3.193,0,0,0-1.5,1.784c.6.007.861-.517,1.394-.7.435,0,.52-.263.912-.372,0,.109.107.051.107.161-.763,0-.3.493-.076.852a.919.919,0,0,0,.473.4,2.122,2.122,0,0,0-.181.4s0,0,0,0c-.145.049-.428.154-.484.268-.863.1-.437.038-.379-.169.031.074.341.007.328.009-.051-.259-.129-.223-.054-.372-.468,0-.7.214-1.073.214-.062.127-.39.428-.535.428a2.537,2.537,0,0,1-.645,1.122c0-.087-.763.479-.7.479-.169.274-.355.265-.43.694a3.6,3.6,0,0,0-.268.854c-.332.221-.455,1.122-1.019,1.122-.346.687-.966.6-.966,1.5a4.707,4.707,0,0,1,.355,1.465c.08.377.205.769-.3.778-.036-.056-.388-.589-.323-.589a3.4,3.4,0,0,0-.428-1.149c-.212-.3-.6.047-.912-.083-.132-.263-1.021-.321-1.338-.321.051.2.2.261.214.482a1.216,1.216,0,0,1-.687.19c-.466-.065-.41-.428-.923-.377a1.549,1.549,0,0,0-1.394,1.577,4.721,4.721,0,0,0,0,1.6c0,.453.375.781.375,1.122.364,0,.772.8,1.126.8.04.283-.178.328.428.323,0-.031.33-.207.375-.428-.419-.1,0-.642.268-.747,0,.381.535-.127.535-.161.06-.025.591-.214.591-.214,0-.433.4.042.107.214-.29,0-.268.482-.428.482-.069.343-.205.642-.285.977-.1.413.232.455.125.841a6.705,6.705,0,0,0,1.287,0,.379.379,0,0,0-.054-.214c.622,0,.054,1.175.43,1.175,0,.444.214.789.214,1.068a.71.71,0,0,1,.375.8c.357.047,1.124.138,1.124-.321.542,0,.58.368.54.747,1.079,0,.4-1.068.854-1.068.042-.176.116-.207.221-.091.221.118.388-.221.564-.328a1.453,1.453,0,0,1,.288-.152c.152.091.165.065.232.167a1.607,1.607,0,0,0,.843-.341c.386.047.261.876.983.928a2.566,2.566,0,0,0,1.211-.071c.062-.042.292.145.317.225.241,0,.223.21.326.205a.087.087,0,0,0,.109.051c.031.091.223.118.323.372,0,.232.482.272.482.426.346.174-.118.221.413.381a3.852,3.852,0,0,0,.876.261c.1-.381.426.051.591.051.085.174.129.042.212.214.5.415.169.254.375.7.239.156.314.7.379,1.015-.192,0-.056.734-.056.8-.232,0,.593.439.593-.109.339.056.562.426.8.426-.14.323.375.566.375.056.508.051.372.81.323,1.068.377,0,.486-.21.807-.25a2.181,2.181,0,0,1,1.175-.381,2.228,2.228,0,0,1,2.23,2.23,2.2,2.2,0,0,1-1.891,2.161,3.9,3.9,0,0,1-.281.3c0,.107-.025,1.173-.056,1.173,0,.214-.163,1.389-.321,1.389,0,.6-.395.714-.535,1.282-.326.241-1.207.642-1.343.908-.252,0-.439.214-.7.214-.036.074-.582.589-.484.589-.04.379.029,1.271-.176,1.521-.138.165-.337.147-.25.406-.3,0,.018.214-.457.214a1.06,1.06,0,0,0-.847.787,1.188,1.188,0,0,1-.517,1.03c0,.152-.7.2-.7.589.065,0,0,.727,0,.8a1.267,1.267,0,0,0-.8.372c-.7,0-.616.071-1.07.375,0,.094-.065.426-.161.426,0,.542-.386.049-.7.323.123,0,.279.533.214.533,0,.471-.292.511-.589.856-.14.094-.274.482-.375.482,0,.317-.158.6-.158.908.067,0,0,.136.051.263.149-.042.154-.212.214-.212,0-.268.426.158.161.158-.221.335-.459.341-.591.8-.134,0-.25.129-.348.281A31.039,31.039,0,0,0,64.439,54.575a8.558,8.558,0,0,1,.243-1.8c.219.161.381.462.535,0-.386-.076-.292-.21-.161-.533a1.352,1.352,0,0,0,.685.183c.074-.138.132-.285.205-.424-.219-.169.083-.609.187-.395.056-.107.1-.219.156-.326-.025-.007-.018.009-.054,0,0-.194.036-.169.163-.268a.2.2,0,0,0,0,.038A31.058,31.058,0,0,0,69.475,37.61c0-.158-.022-.31-.025-.468-.058.219-.167.455-.321.508,0,.141-1.595.834-1.5,1.122-.281,0-1.267.281-1.447.64a2.488,2.488,0,0,0-1.073.428c-.995,0-.805-1.173-1.285-1.173ZM68.36,26.459H67.175c-.009-.011-.018-.013-.027-.029-.06,0-.312-.566-.214-.7a1.584,1.584,0,0,1,.192.013c-.1-.245-.21-.486-.319-.729a1.54,1.54,0,0,1-.785.395c0,.091-.475,1.015,0,1.015a.162.162,0,0,0,.013.047,1.109,1.109,0,0,0,.094,2.215h.439c.027.2.136.379.526.466.123.515,1.041.7,1.18.158-.388,0-.261-.372-.227-.624h.312a1.115,1.115,0,1,0,0-2.23ZM65.11,40.96c.078,0,.593-.009.593-.1a5.45,5.45,0,0,0,1.554-.216c0,.691-.582,1.077-.484,1.764-.386,0-.216.4-.216.533-.25.154-.288.435-.589.589,0,.31-.7.823-.9,1.088-.232.3-.93.812-1.021,1.189.025-.089-1.276,1.354-.972,1.354,0,.27-.366,2.4.107,2.4,0,.187.4,1.978.158,1.978,0,.575-.375.928-.375,1.387-.183.125-.444.194-.535.377-.328,0-.486.7-.642.7,0,.743-.216,1.293-.216,2.136.06,0-.428,1.2-.428,1.28-.395.265-1.394,1.218-1.394,1.713,0,0-.7.977-.8,1.122a6.9,6.9,0,0,0-1.824.428c-.343,0-1.231.27-1.445-.054,0-.339-.185-.769-.214-1.231-.165,0-.192-.694-.375-.694a18.425,18.425,0,0,1-.859-2.192,3.59,3.59,0,0,0-.214-.908c0-.736-.537-1.349-.537-2.029-.158,0-.486-1.494-.321-1.494a16.755,16.755,0,0,1,.388-2.17,5.162,5.162,0,0,0-.227-2.215c-.091,0-.4-.511-.43-.64a1.624,1.624,0,0,1-.589-1.387,3.615,3.615,0,0,0,.323-1.925,2.4,2.4,0,0,0-1.343-.161c-.346-.694-2.667-.265-3.325-.265,0,.379-1.617-.074-1.768-.375-.395,0-1.178-.839-1.178-1.229a4.4,4.4,0,0,1-1.124-2.19c-.375-.187-.261-.91-.056-.91a3.811,3.811,0,0,0-.219-1.135c-.065-.225.219-.468.219-.736a3.222,3.222,0,0,1,.435-1.884,7.285,7.285,0,0,0,.421-.8c.223-.56.29-.027.591-.526.288-.143.455-.62.752-.854.129-.172.134-.243,0-.375a3.217,3.217,0,0,0,.375-1.012c.419-.582.123-.317.535-.268.152-.165.4-.589.642-.589a.677.677,0,0,1,.591-.321c0,.321.874-.1.966-.1a2.467,2.467,0,0,1,1.34-.642c0-.366,1.9.1,2.2.054v-.161c.406.1,1.146,1.724,1.07,2.085a4.178,4.178,0,0,1,.805,0c0,.346.651.43.948.446.413.02,1.624-.042,1.624-.607a.5.5,0,0,1,.54.587c.361.04,2.509.083,2.357.533.314,0,.395.537.7.537-.06.37.375,1.336.7,1.336a1.682,1.682,0,0,0,.484,1.12,3.912,3.912,0,0,0,1.124,1.711c-.2.379.306.691.43,1.068-.029,0,.109.56.265.642,0,.379.8,1.925,1.235,1.925.029.187-.41.272.161.314ZM53.534,29c.083-.319.27-.071.444-.013.413.134.27-.007.575-.145C54.553,29.707,54.053,29.046,53.534,29Zm-1.128-1.6c.219,0,.279.981-.321.8,0-.243-.154-.694.163-.694.091.379.158.225.158-.107Zm-.265-.64c.248.107.357.071.321-.107.326.107-.042.339-.107.589C52.187,27.068,52.238,27.01,52.14,26.752ZM46.4,21.995c-.526-.136.542-.292.589-.426a.249.249,0,0,1-.232-.341c.08-.185.212.221.395.129.216-.022.642-.346.424.279s-.426,1.1-1.229,1.108c-.288-.29-.011-.442.054-.749Zm1.985-2.19c.433,0,.054.321-.042.321.074.029-.013.288-.013.372.4,0,.408-.25.7-.321-.06.359-.462.428-.069.736.207.163.419.355.337.6.511,0,.587.491.482,1.068.283,0,.27.013.27-.27.274.076.254.323,0,.323-.254.5-.921.479-1.394.479,0-.388-.078-.413-.437-.3-.491.149-.107-.39-.1-.658.054,0,1.113.049.482-.161-.033-.575-.163-.747-.7-.747,0-.393-.138-.364-.2-.794-.091-.636.5.045.687-.649Zm-.163,3.472c0,.132-.268.236-.321.051.051.018.071,0,.051-.051Zm-4.4-5.738H41.6a1.115,1.115,0,0,1,0-2.23h2.23a1.115,1.115,0,0,1,0,2.23ZM30.835,37.276c.125,0,.27.049.27.161C30.942,37.436,30.733,37.59,30.835,37.276Zm-2.034.109c-.089.169-.812.14-.912-.056.268,0,.475.109.749,0,0-.147-.123-.265-.214-.426.292,0,.62.223,1.019.214,0-.248-.109.054,0-.268a1.252,1.252,0,0,1,.589.587,7.955,7.955,0,0,0-1.231-.051ZM26.442,36.1a1.5,1.5,0,0,1-.966-.482c.265.011.529.12.7-.161.68.069.74.537,1.287.537.1.181.687.6.123.649a1.239,1.239,0,0,1-1.14-.544Zm.428,1.5c-.2,0-.526.087-.375-.323C26.759,37.311,26.884,37.421,26.87,37.6Zm.375-.054-.321.054C26.955,37.351,27.189,37.075,27.245,37.545Zm1.983,2.348c-.042.149-.036.158-.212.158.018-.069.033-.138.051-.212ZM24.4,35.46c.051.018.107.038.161.054.069.265.214.134.375.054C24.939,35.877,24.221,35.967,24.4,35.46Z" transform="translate(-2.571 -1.928)"/>
</svg>
